<svg width="53" height="53" viewBox="0 0 53 53" fill="none" xmlns="http://www.w3.org/2000/svg">
    <path d="M4.55033 13.8273L26.5 1.1547L48.4497 13.8273V39.1726L26.5 51.8453L4.55033 39.1726V13.8273Z" fill="white" stroke="#3C3F52" stroke-width="2"/>
    <path d="M26.8105 51.7676L4.62449 39.1339L49.3047 39.1339L26.8105 51.7676Z" fill="#3C3F52"/>
    <path d="M7.97237 19.8205L26.186 9.15873L44.3997 19.8205V41.1679L26.186 51.8296L7.97237 41.1679V19.8205Z" fill="white" stroke="#3C3F52" stroke-width="2"/>
    <path d="M25.8825 51.7559L6.93204 41.125L44.833 41.125L25.8825 51.7559Z" fill="#3C3F52"/>
    <path d="M12.3118 27.2053L26.2558 19.1547L40.1998 27.2053V43.3064L26.2558 51.3569L12.3118 43.3064V27.2053Z" fill="white" stroke="#3C3F52" stroke-width="2"/>
    <path d="M26.564 52.512L11.8869 41.8811L41.2412 41.8812L26.564 52.512Z" fill="#3C3F52"/>
</svg>
