<svg width="390" height="246" viewBox="0 0 390 246" fill="none" xmlns="http://www.w3.org/2000/svg">
    <g clip-path="url(#clip0_1_1288)">
        <path d="M284.571 59.9091C284.571 83.5106 247.68 153.113 226.528 191.081C225.093 193.657 222.996 195.803 220.454 197.297C217.912 198.791 215.017 199.579 212.068 199.579C209.12 199.579 206.225 198.791 203.683 197.297C201.141 195.803 199.044 193.657 197.609 191.081C176.457 153.113 139.566 83.5106 139.566 59.9091C139.566 26.8222 172.027 0 212.068 0C252.11 0 284.571 26.8222 284.571 59.9091Z" fill="#07BDC6"/>
        <path d="M212.41 98.7143C234.217 98.7143 251.895 81.036 251.895 59.2287C251.895 37.4214 234.217 19.7432 212.41 19.7432C190.604 19.7432 172.926 37.4214 172.926 59.2287C172.926 81.036 190.604 98.7143 212.41 98.7143Z" fill="white"/>
        <path d="M47.6419 94.9558C60.7033 94.9558 71.2916 84.3672 71.2916 71.3055C71.2916 58.2438 60.7033 47.6553 47.6419 47.6553C34.5805 47.6553 23.9922 58.2438 23.9922 71.3055C23.9922 84.3672 34.5805 94.9558 47.6419 94.9558Z" fill="#FEE599"/>
        <path d="M212.068 246C243.685 246 269.315 244.021 269.315 241.581C269.315 239.14 243.685 237.161 212.068 237.161C180.451 237.161 154.82 239.14 154.82 241.581C154.82 244.021 180.451 246 212.068 246Z" fill="#89C3A4"/>
        <path opacity="0.4" d="M42.8249 92.3367C44.0286 84.9192 38.9914 77.9304 31.5741 76.7267C24.1569 75.5231 17.1682 80.5603 15.9646 87.9777C14.7609 95.3952 19.798 102.384 27.2153 103.588C34.6326 104.791 41.6212 99.7541 42.8249 92.3367Z" fill="#FEE599"/>
        <path d="M347.716 160.346C240.57 120.18 109.889 159.338 34.4392 239.44C34.0103 239.889 33.5814 240.345 33.1661 240.801H32.0156C32.4105 240.345 32.8189 239.889 33.2206 239.44C110.236 153.245 239.181 118.893 347.716 160.346Z" fill="#5A7172"/>
        <path d="M376.999 173.669C367.528 168.618 357.749 164.168 347.719 160.346C357.775 164.105 367.558 168.557 376.999 173.669Z" fill="#5A7172"/>
        <path opacity="0.4" d="M318.356 133.594C326.597 133.594 333.279 126.913 333.279 118.671C333.279 110.429 326.597 103.748 318.356 103.748C310.114 103.748 303.433 110.429 303.433 118.671C303.433 126.913 310.114 133.594 318.356 133.594Z" fill="#FEE599"/>
        <path d="M320.016 233.455C321.169 237.718 325.119 240.359 325.119 240.359C325.119 240.359 327.2 236.087 326.046 231.824C324.893 227.561 320.943 224.921 320.943 224.921C320.943 224.921 318.863 229.192 320.016 233.455Z" fill="#5A7172"/>
        <path d="M321.713 232.54C324.877 235.62 325.264 240.355 325.264 240.355C325.264 240.355 320.52 240.096 317.356 237.016C314.191 233.936 313.805 229.2 313.805 229.2C313.805 229.2 318.549 229.459 321.713 232.54Z" fill="#89C3A4"/>
        <path d="M2.28771 174.182V180.759L1.96094 181.113V174.114C2.06986 174.135 2.17881 174.162 2.28771 174.182Z" fill="#5A7172"/>
        <path d="M23.2418 239.436C23.1465 239.592 23.0444 239.749 22.9423 239.905H1.96094V174.509L2.28771 174.182L5.07206 177.348V172.719H13.9221V187.41L22.8606 197.561L22.9423 197.656C23.0512 197.996 23.1533 198.337 23.2554 198.677C23.2561 198.682 23.2585 198.687 23.2623 198.691C24.6028 202.981 25.7028 207.342 26.5572 211.755C28.5042 222.164 28.2115 231.709 23.2418 239.436Z" fill="#CCCCCC"/>
        <path d="M9.32832 210.331H3.69531V215.025H9.32832V210.331Z" fill="#5A7172"/>
        <path d="M9.32832 218.78H3.69531V223.475H9.32832V218.78Z" fill="#5A7172"/>
        <path d="M182.848 201.411L180.031 196.717L206.319 174.184C225.753 164.83 249.179 167.529 273.915 174.184V180.756L249.505 207.045L221.34 212.677L182.848 201.411Z" fill="#5A7172"/>
        <path d="M285.551 187.408C290.219 182.216 290.868 177.278 285.551 172.719H276.701V177.351L273.915 174.185L251.383 196.718L247.628 200.473L242.934 219.25L251.383 239.905H294.569V197.657L285.551 187.408Z" fill="#CCCCCC"/>
        <path d="M180.03 196.718H251.381V239.905H180.03C171.397 230.566 175.882 213.543 180.03 196.718Z" fill="#F2F2F2"/>
        <path d="M241.525 210.331H226.504V223.475H241.525V210.331Z" fill="#5A7172"/>
        <path d="M220.401 209.861H207.258V239.905H220.401V209.861Z" fill="#CCCCCC"/>
        <path d="M192.234 214.555V209.861H186.602V214.555H191.765H192.234Z" fill="#5A7172"/>
        <path d="M191.765 218.311H186.602V223.005H192.234V218.311H191.765Z" fill="#5A7172"/>
        <path d="M201.625 209.861H195.992V214.556H201.625V209.861Z" fill="#5A7172"/>
        <path d="M201.625 218.311H195.992V223.005H201.625V218.311Z" fill="#5A7172"/>
        <path d="M271.567 215.026V210.331H265.934V215.026H271.097H271.567Z" fill="#5A7172"/>
        <path d="M271.097 218.78H265.934V223.474H271.567V218.78H271.097Z" fill="#5A7172"/>
        <path d="M280.953 210.331H275.32V215.025H280.953V210.331Z" fill="#5A7172"/>
        <path d="M280.953 218.78H275.32V223.475H280.953V218.78Z" fill="#5A7172"/>
        <path d="M55.7994 122.549L51.1055 118.793L77.3927 95.3213H144.05V115.976L100.864 145.081L55.7994 122.549Z" fill="#5A7172"/>
        <path d="M156.203 108.487V95.7894H147.353V98.8992L144.05 95.3203L122.457 118.792L114.008 124.425L100.906 220.146L120.664 239.904H166.582C173.618 204.512 179.197 168.153 166.582 119.731L156.203 108.487Z" fill="#CCCCCC"/>
        <path d="M51.1047 118.792H122.456V239.904H51.1047C43.2969 192.853 39.4836 149.22 51.1047 118.792Z" fill="#F2F2F2"/>
        <path d="M91.9445 210.331H78.8008V239.905H91.9445V210.331Z" fill="#CCCCCC"/>
        <path d="M64.7186 218.781V214.087H59.0859V218.781H64.2496H64.7186Z" fill="#5A7172"/>
        <path d="M64.2496 222.536H59.0859V227.231H64.7186V222.536H64.2496Z" fill="#5A7172"/>
        <path d="M74.1056 214.086H68.4727V218.78H74.1056V214.086Z" fill="#5A7172"/>
        <path d="M102.742 222.536H97.5781V227.231H103.211V222.536H102.742Z" fill="#5A7172"/>
        <path d="M112.598 214.086H106.965V218.78H112.598V214.086Z" fill="#5A7172"/>
        <path d="M112.598 222.536H106.965V227.23H112.598V222.536Z" fill="#5A7172"/>
        <path d="M142.641 124.895V120.201H137.008V124.895H142.171H142.641Z" fill="#5A7172"/>
        <path d="M142.171 128.65H137.008V133.344H142.641V128.65H142.171Z" fill="#5A7172"/>
        <path d="M152.031 120.2H146.398V124.894H152.031V120.2Z" fill="#5A7172"/>
        <path d="M152.031 128.65H146.398V133.345H152.031V128.65Z" fill="#5A7172"/>
        <path d="M142.641 151.183V146.488H137.008V151.183H142.171H142.641Z" fill="#5A7172"/>
        <path d="M142.171 154.938H137.008V159.632H142.641V154.938H142.171Z" fill="#5A7172"/>
        <path d="M152.031 146.488H146.398V151.183H152.031V146.488Z" fill="#5A7172"/>
        <path d="M152.031 154.938H146.398V159.633H152.031V154.938Z" fill="#5A7172"/>
        <path d="M142.641 177.471V172.776H137.008V177.471H142.171H142.641Z" fill="#5A7172"/>
        <path d="M142.171 181.227H137.008V185.921H142.641V181.227H142.171Z" fill="#5A7172"/>
        <path d="M152.031 172.776H146.398V177.471H152.031V172.776Z" fill="#5A7172"/>
        <path d="M152.031 181.227H146.398V185.921H152.031V181.227Z" fill="#5A7172"/>
        <path d="M142.641 203.759V199.064H137.008V203.759H142.171H142.641Z" fill="#5A7172"/>
        <path d="M142.171 207.515H137.008V212.209H142.641V207.515H142.171Z" fill="#5A7172"/>
        <path d="M152.031 199.064H146.398V203.759H152.031V199.064Z" fill="#5A7172"/>
        <path d="M152.031 207.514H146.398V212.208H152.031V207.514Z" fill="#5A7172"/>
        <path d="M59.0859 124.895H113.538V136.161C96.0847 131.344 77.8839 131.689 59.0859 136.161V124.895Z" fill="#5A7172"/>
        <path d="M59.0859 147.428C76.0811 152.435 94.2319 152.435 113.538 147.428V158.694H59.0859V147.428Z" fill="#5A7172"/>
        <path d="M59.0858 169.96H113.538V181.226C94.981 175.3 76.811 175.021 59.0858 181.226V169.96Z" fill="#5A7172"/>
        <path d="M59.0858 192.492C76.8444 199.337 95.0116 199.052 113.538 192.492V203.759H59.0858V192.492Z" fill="#5A7172"/>
        <path d="M351.742 172.92H390.001V191.355L386.583 192.425L375.215 195.973L357.378 191.841L339.563 187.713L330.154 185.533L325.457 183.795C329.365 178.433 336.472 174.216 351.742 172.92Z" fill="#5A7172"/>
        <path d="M390 183.795V239.906H325.456C325.436 239.871 325.422 239.839 325.402 239.805V239.802C325.386 239.762 325.368 239.724 325.347 239.688C324.339 237.66 323.436 235.637 322.638 233.62C315.864 216.547 316.599 199.925 325.456 183.795H390Z" fill="#F2F2F2"/>
        <path d="M366.296 210.331H353.152V239.905H366.296V210.331Z" fill="#CCCCCC"/>
        <path d="M339.07 218.781V214.087H333.438V218.781H338.601H339.07Z" fill="#5A7172"/>
        <path d="M338.601 222.536H333.438V227.231H339.07V222.536H338.601Z" fill="#5A7172"/>
        <path d="M348.457 214.086H342.824V218.78H348.457V214.086Z" fill="#5A7172"/>
        <path d="M348.457 222.536H342.824V227.23H348.457V222.536Z" fill="#5A7172"/>
        <path d="M377.562 218.781V214.087H371.93V218.781H377.093H377.562Z" fill="#5A7172"/>
        <path d="M377.093 222.536H371.93V227.231H377.562V222.536H377.093Z" fill="#5A7172"/>
        <path d="M386.949 214.086H381.316V218.78H386.949V214.086Z" fill="#5A7172"/>
        <path d="M386.949 222.536H381.316V227.23H386.949V222.536Z" fill="#5A7172"/>
        <path d="M339.562 151.135H347.654C355.635 151.135 363.288 154.305 368.932 159.948C374.575 165.592 377.745 173.246 377.745 181.227H339.562V151.135Z" fill="#5A7172"/>
        <path d="M94.4844 69.4404H102.576C110.557 69.4404 118.21 72.6108 123.854 78.2541C129.497 83.8974 132.667 91.5514 132.667 99.5322H94.4844V69.4404Z" fill="#5A7172"/>
        <path d="M223.832 145.007H231.924C239.904 145.007 247.558 148.177 253.201 153.821C258.844 159.464 262.015 167.118 262.015 175.099H223.832V145.007Z" fill="#5A7172"/>
        <path d="M377.745 192.492H339.562V203.758H377.745V192.492Z" fill="#5A7172"/>
        <path d="M390 239.439H1.96094V240.801H390V239.439Z" fill="#5A7172"/>
        <path d="M37.7483 185.654H36.3867V239.436H37.7483V185.654Z" fill="#5A7172"/>
        <path d="M50.3131 192.508C50.3998 211.314 37.1689 226.621 37.1689 226.621C37.1689 226.621 20.225 211.111 23.7108 192.631C27.2165 174.045 38.1425 158.596 36.855 158.518C36.855 158.518 50.2264 173.702 50.3131 192.508Z" fill="#89C3A4"/>
        <path d="M173.905 185.654H172.543V239.436H173.905V185.654Z" fill="#5A7172"/>
        <path d="M186.47 192.508C187.697 211.274 173.326 226.621 173.326 226.621C173.326 226.621 159.954 211.437 159.868 192.631C159.781 173.824 173.012 158.518 173.012 158.518C171.722 163.673 185.477 177.324 186.47 192.508Z" fill="#89C3A4"/>
        <path d="M85.4453 98.2303L144.587 95.3369L169.396 116.046L165.01 120.006L125.723 119.122L85.4453 98.2303Z" fill="#5A7172"/>
        <path d="M26.4343 194.334L23.2483 197.213L22.8603 197.56L22.0502 198.296L1.96062 197.846V174.114C1.30708 173.971 0.65354 173.835 0 173.706L1.62705 173.624L1.96062 173.903L5.07175 176.497L13.9218 183.89L23.8065 192.141L26.4343 194.334Z" fill="#5A7172"/>
        <path d="M214.793 176.52L273.934 173.627L298.744 194.336L294.357 198.296L255.071 197.412L214.793 176.52Z" fill="#5A7172"/>
    </g>
    <defs>
        <clipPath id="clip0_1_1288">
            <rect width="390" height="246" fill="white"/>
        </clipPath>
    </defs>
</svg>
