<svg width="321" height="373" viewBox="0 0 321 373" fill="none" xmlns="http://www.w3.org/2000/svg">
    <path d="M85.9122 113.659C83.6218 114.532 81.283 115.272 78.9073 115.876C75.7693 116.641 73.9976 116.996 70.9688 115.82C70.8624 115.778 70.7609 115.738 70.6651 115.697C64.9243 113.255 60.0168 109.196 56.5401 104.014C53.0635 98.8312 51.1675 92.7494 51.083 86.5084C51.0679 86.2943 51.0679 86.0692 51.0679 85.8496C51.0649 84.7919 51.1155 83.7347 51.2193 82.6821C51.352 81.2482 51.5813 79.825 51.9055 78.422L51.8752 78.4165C49.423 75.9077 48.4795 72.4711 48.7923 69.0181C49.0066 66.6771 49.7492 64.4153 50.9641 62.4031C52.1789 60.3909 53.8344 58.6809 55.8057 57.4018C58.8952 55.4584 62.3787 54.2281 66.003 53.8005C66.9761 53.6883 67.9549 53.6314 68.9345 53.6304H78.1377C80.0385 53.1851 81.9695 52.8805 83.915 52.719H83.9301C102.453 51.1819 117.06 63.468 115.697 78.4165C115.687 78.433 115.672 78.4495 115.662 78.4659C115.269 79.1082 114.92 79.7176 114.613 80.2995C114.315 80.843 114.063 81.3645 113.846 81.8586C112.155 85.6795 120.188 144.96 117.307 145.86C115.667 146.371 109.057 102.259 110.243 110.647C111.737 121.171 94.4454 110.503 85.9122 113.659Z" fill="#2F2E41"/>
    <path d="M113.816 220.822L139.492 275.551L40.7227 265.542L61.3402 213.003L113.816 220.822Z" fill="#FFB6B6"/>
    <path d="M165.358 330.551C148.182 336.271 130.082 338.696 112.008 337.7L104.148 324.947C104.148 324.947 103.819 329.697 103.328 336.958C94.7243 335.96 86.2326 334.159 77.9642 331.578C62.2839 326.672 47.5854 319.07 32.686 312.06C29.6682 294.061 28.5358 266.306 45.2202 250.148L135.024 266.613C135.024 266.613 149.432 277.396 145.577 281.258C141.723 285.114 141.126 284.517 143.659 287.051C146.191 289.585 151.663 292.973 151.719 295.188C151.741 296.054 157.883 311.742 165.358 330.551Z" fill="#2F2E41"/>
    <path d="M98.1369 115.065L76.4407 116.58L62.4176 130.138L57.5064 131.015C53.0919 131.802 49.1196 134.183 46.3429 137.706C43.5662 141.229 42.1781 145.649 42.4419 150.128C43.4521 167.252 45.7139 192.839 50.4414 201.141C57.7718 214.013 63.8266 209.974 57.7718 214.013C51.7171 218.051 47.6521 214.878 50.4414 221.26C53.2308 227.643 46.6714 235.83 46.6714 235.83L44.0603 238.442L46.8297 239.578L135.075 251.067C135.075 251.067 127.444 216.742 132.216 208.309C136.988 199.877 148.558 174.389 138.232 164.416L128.136 128.867L110.769 123.742L98.1369 115.065Z" fill="#FEE599"/>
    <path d="M229.472 255.946C228.02 255.9 226.596 255.539 225.297 254.888C223.998 254.237 222.856 253.311 221.95 252.175C221.044 251.039 220.396 249.719 220.049 248.308C219.703 246.896 219.667 245.426 219.945 243.999L178.551 215.951L183.49 202.588L232.411 236.261C234.776 236.907 236.823 238.398 238.163 240.453C239.502 242.508 240.042 244.983 239.68 247.409C239.318 249.836 238.079 252.045 236.198 253.618C234.316 255.192 231.923 256.02 229.472 255.946Z" fill="#FFB6B6"/>
    <path d="M112.554 127.187L106.539 129.57L138.626 192.271L205.05 237.573L214.625 221.381L164.062 177.684L143.819 138.84C140.97 133.373 136.198 129.157 130.424 127.005C124.649 124.853 118.283 124.918 112.554 127.187Z" fill="#FEE599"/>
    <path d="M86.1572 109.55C98.1893 109.55 107.943 99.7913 107.943 87.7528C107.943 75.7142 98.1893 65.9551 86.1572 65.9551C74.125 65.9551 64.3711 75.7142 64.3711 87.7528C64.3711 99.7913 74.125 109.55 86.1572 109.55Z" fill="#FFB6B6"/>
    <path d="M105.104 78.5357C104.741 78.7275 104.383 78.9042 104.02 79.0809C103.641 79.2627 103.263 79.4444 102.879 79.616C95.5883 82.9227 89.6496 83.2913 86.047 78.5357C85.9484 76.0338 85.3855 73.5721 84.387 71.2762C84.5634 73.8419 83.8876 76.3941 82.4646 78.5357H75.209C67.7364 83.4982 63.9017 88.0569 69.0886 104.348C69.4266 105.418 71.7426 143.442 72.4036 146.365C61.0913 142.023 51.333 95.9272 51.0858 83.7809C51.0706 83.5841 51.0706 83.3771 51.0706 83.1751C51.0677 82.2021 51.1183 81.2297 51.222 80.2622C51.3552 78.9414 51.5845 77.6321 51.9082 76.3447L51.878 76.3397C50.727 75.2387 49.8489 73.884 49.3137 72.3836C48.7785 70.8831 48.6009 69.2783 48.7951 67.697C50.6928 65.2109 53.0412 63.1044 55.7177 61.4875C58.1514 60.3084 60.6883 59.3553 63.2962 58.6403C63.3618 58.6251 63.4173 58.61 63.4829 58.5948C64.2801 58.3777 65.0975 58.1809 65.9149 58.0092C67.5994 57.6558 69.3025 57.3979 71.016 57.2368C71.1422 57.2318 71.2633 57.2217 71.3743 57.2217C72.0597 57.2221 72.7324 57.407 73.3219 57.7568C73.3269 57.7568 73.3269 57.7619 73.337 57.7619C73.9035 58.1005 74.3732 58.5793 74.7011 59.1523C75.0289 59.7252 75.2038 60.373 75.2089 61.0332H83.2921C83.5897 61.0332 83.8874 61.0433 84.1851 61.0584C95.4419 61.5077 104.489 66.3238 105.069 77.3948C105.094 77.7785 105.104 78.1521 105.104 78.5357Z" fill="#2F2E41"/>
    <path d="M57.3137 79.4113C65.2406 79.4113 71.6665 72.9819 71.6665 65.0509C71.6665 57.1198 65.2406 50.6904 57.3137 50.6904C49.3869 50.6904 42.9609 57.1198 42.9609 65.0509C42.9609 72.9819 49.3869 79.4113 57.3137 79.4113Z" fill="#2F2E41"/>
    <path d="M77.0187 58.409C75.3881 66.1704 67.3432 70.8125 59.6469 68.9136C55.9511 68.0017 52.7686 65.6582 50.7996 62.3987C48.8307 59.1391 48.2366 55.2305 49.148 51.5326C51.0458 43.8322 60.3862 46.0522 66.5197 41.028C75.1963 33.9206 79.2177 47.9421 77.0187 58.409Z" fill="#2F2E41"/>
    <path d="M45.1298 274.458C57.3624 224.547 81.6002 181.648 121.741 148.037C123.295 145.48 125.798 143.644 128.703 142.931C131.608 142.219 134.677 142.689 137.236 144.237L232.661 202.127C235.217 203.681 237.052 206.186 237.764 209.092C238.476 211.999 238.006 215.069 236.458 217.629C221.137 268.843 198.19 313.284 159.847 344.051C158.294 346.608 155.79 348.444 152.885 349.156C149.98 349.869 146.912 349.399 144.353 347.85L48.9273 289.961C46.3717 288.407 44.5366 285.901 43.8247 282.995C43.1127 280.089 43.5821 277.019 45.1298 274.458Z" fill="#F2F2F2"/>
    <path opacity="0.2" d="M62.0907 291.278C59.535 289.723 57.7 287.218 56.9881 284.312C56.2762 281.406 56.7455 278.335 58.2933 275.775C70.5258 225.864 94.7637 182.964 134.904 149.353C135.933 147.68 137.385 146.307 139.114 145.375L137.236 144.236C134.677 142.688 131.608 142.218 128.703 142.93C125.798 143.643 123.295 145.478 121.741 148.035C81.6002 181.647 57.3624 224.546 45.1299 274.457C43.5821 277.018 43.1127 280.088 43.8246 282.994C44.5366 285.9 46.3716 288.405 48.9273 289.96L144.352 347.849C146.051 348.872 147.989 349.427 149.971 349.458C151.953 349.49 153.908 348.996 155.638 348.028L62.0907 291.278Z" fill="black"/>
    <path d="M174.001 263.392L109.948 224.777C108.93 224.162 108.198 223.168 107.913 222.013C107.627 220.858 107.811 219.637 108.425 218.618C109.039 217.599 110.031 216.865 111.185 216.578C112.339 216.291 113.56 216.474 114.579 217.086L178.633 255.702C179.648 256.318 180.378 257.312 180.662 258.466C180.946 259.62 180.761 260.839 180.148 261.857C179.535 262.874 178.544 263.607 177.392 263.895C176.24 264.183 175.021 264.002 174.001 263.392Z" fill="white"/>
    <path d="M136.736 212.185L122.644 203.69C121.623 203.078 120.886 202.086 120.596 200.932C120.306 199.777 120.486 198.554 121.097 197.532C121.708 196.51 122.7 195.773 123.854 195.483C125.008 195.193 126.23 195.373 127.252 195.984L127.276 195.999L141.368 204.495C142.383 205.111 143.113 206.105 143.397 207.259C143.681 208.413 143.497 209.632 142.884 210.65C142.271 211.668 141.279 212.401 140.127 212.689C138.975 212.976 137.755 212.795 136.736 212.185Z" fill="white"/>
    <path d="M163.82 280.297L99.7659 241.682C98.7471 241.068 98.0136 240.075 97.7265 238.92C97.4394 237.765 97.6222 236.544 98.2347 235.524C98.8473 234.504 99.8395 233.769 100.993 233.481C102.147 233.192 103.368 233.374 104.388 233.986L104.397 233.991L168.451 272.607C169.466 273.223 170.196 274.217 170.48 275.371C170.764 276.525 170.579 277.744 169.966 278.761C169.353 279.779 168.362 280.512 167.21 280.8C166.058 281.088 164.839 280.907 163.82 280.297Z" fill="white"/>
    <path d="M182.135 190.582C192.467 190.582 200.843 182.201 200.843 171.863C200.843 161.525 192.467 153.145 182.135 153.145C171.802 153.145 163.426 161.525 163.426 171.863C163.426 182.201 171.802 190.582 182.135 190.582Z" fill="#3F3D56"/>
    <path d="M149.886 372.442C171.97 372.442 189.873 354.53 189.873 332.433C189.873 310.337 171.97 292.425 149.886 292.425C127.801 292.425 109.898 310.337 109.898 332.433C109.898 354.53 127.801 372.442 149.886 372.442Z" fill="white"/>
    <path d="M149.885 373C141.866 373 134.027 370.621 127.359 366.163C120.692 361.706 115.495 355.37 112.426 347.957C109.357 340.545 108.554 332.388 110.119 324.519C111.683 316.65 115.545 309.421 121.215 303.748C126.885 298.075 134.11 294.211 141.975 292.646C149.84 291.08 157.992 291.884 165.401 294.954C172.809 298.024 179.142 303.224 183.597 309.895C188.052 316.566 190.43 324.409 190.43 332.433C190.418 343.188 186.142 353.499 178.541 361.104C170.94 368.71 160.635 372.988 149.885 373ZM149.885 292.982C142.087 292.982 134.463 295.296 127.979 299.631C121.495 303.966 116.441 310.127 113.457 317.336C110.473 324.545 109.692 332.477 111.213 340.13C112.735 347.782 116.49 354.812 122.004 360.329C127.519 365.846 134.544 369.603 142.193 371.126C149.841 372.648 157.769 371.866 164.974 368.88C172.179 365.895 178.337 360.838 182.67 354.35C187.002 347.863 189.315 340.235 189.314 332.433C189.303 321.973 185.145 311.946 177.753 304.55C170.361 297.154 160.339 292.994 149.885 292.982Z" fill="#3F3D56"/>
    <path d="M144.429 353.255C143.739 353.255 143.058 353.094 142.44 352.785C141.823 352.476 141.285 352.028 140.871 351.475L129.962 336.921C129.611 336.454 129.356 335.922 129.21 335.355C129.065 334.789 129.032 334.199 129.115 333.621C129.197 333.042 129.393 332.485 129.69 331.981C129.988 331.478 130.382 331.039 130.85 330.688C131.317 330.337 131.849 330.082 132.415 329.937C132.982 329.792 133.571 329.76 134.149 329.843C134.728 329.926 135.284 330.122 135.787 330.42C136.29 330.719 136.729 331.113 137.079 331.581L144.216 341.102L162.547 313.591C162.871 313.105 163.288 312.687 163.773 312.362C164.258 312.037 164.803 311.81 165.376 311.696C165.948 311.581 166.538 311.581 167.111 311.694C167.684 311.807 168.229 312.033 168.715 312.357C169.201 312.681 169.619 313.098 169.944 313.583C170.269 314.069 170.495 314.614 170.61 315.187C170.724 315.76 170.725 316.35 170.612 316.924C170.498 317.497 170.273 318.042 169.949 318.529L148.131 351.273C147.736 351.866 147.205 352.355 146.583 352.699C145.96 353.044 145.264 353.234 144.553 353.254C144.512 353.255 144.471 353.255 144.429 353.255Z" fill="#07BDC6"/>
    <path d="M279.024 129.688C280.613 129.552 281.825 128.545 281.73 127.439C281.636 126.333 280.271 125.547 278.682 125.683C277.093 125.819 275.881 126.825 275.976 127.931C276.07 129.037 277.435 129.824 279.024 129.688Z" fill="white"/>
    <path d="M296.903 123.619C298.492 123.483 299.704 122.477 299.609 121.371C299.514 120.265 298.15 119.478 296.561 119.614C294.972 119.75 293.76 120.757 293.855 121.863C293.949 122.969 295.314 123.755 296.903 123.619Z" fill="#3F3D56"/>
    <path d="M270.551 116.04C272.14 115.904 273.352 114.897 273.257 113.792C273.163 112.686 271.798 111.899 270.209 112.035C268.62 112.171 267.409 113.178 267.503 114.284C267.598 115.39 268.962 116.176 270.551 116.04Z" fill="#FF6584"/>
    <path d="M263.051 111.643C263.735 111.488 264.109 110.565 263.887 109.582C263.665 108.598 262.93 107.926 262.246 108.081C261.562 108.235 261.188 109.158 261.41 110.142C261.632 111.125 262.367 111.797 263.051 111.643Z" fill="#E6E6E6"/>
    <path d="M257.711 100.967C258.395 100.812 258.769 99.8894 258.547 98.9057C258.325 97.9221 257.59 97.25 256.906 97.4046C256.222 97.5592 255.848 98.482 256.07 99.4656C256.292 100.449 257.027 101.121 257.711 100.967Z" fill="#3F3D56"/>
    <path d="M283.328 115.96C284.012 115.805 284.386 114.883 284.164 113.899C283.942 112.915 283.207 112.243 282.523 112.398C281.84 112.552 281.465 113.475 281.687 114.459C281.91 115.442 282.644 116.114 283.328 115.96Z" fill="#E6E6E6"/>
    <path d="M275.519 122.445C276.203 122.291 276.578 121.368 276.355 120.384C276.133 119.401 275.399 118.729 274.715 118.883C274.031 119.038 273.657 119.96 273.879 120.944C274.101 121.928 274.835 122.6 275.519 122.445Z" fill="#FF6584"/>
    <path d="M289.734 127.728C290.418 127.574 290.792 126.651 290.57 125.667C290.348 124.684 289.614 124.012 288.93 124.166C288.246 124.321 287.871 125.244 288.094 126.227C288.316 127.211 289.05 127.883 289.734 127.728Z" fill="#3F3D56"/>
    <path d="M205.209 46.9898C205.481 45.9138 204.449 44.7237 202.903 44.3318C201.357 43.9398 199.883 44.4943 199.611 45.5703C199.338 46.6463 200.37 47.8363 201.916 48.2283C203.462 48.6203 204.936 48.0658 205.209 46.9898Z" fill="white"/>
    <path d="M186.334 46.8677C186.606 45.7917 185.574 44.6016 184.028 44.2097C182.482 43.8177 181.008 44.3722 180.736 45.4482C180.463 46.5242 181.495 47.7142 183.041 48.1062C184.587 48.4982 186.061 47.9437 186.334 46.8677Z" fill="#3F3D56"/>
    <path d="M208.752 62.6607C209.024 61.5847 207.992 60.3946 206.446 60.0027C204.9 59.6107 203.426 60.1652 203.154 61.2412C202.881 62.3172 203.913 63.5072 205.459 63.8992C207.005 64.2912 208.479 63.7367 208.752 62.6607Z" fill="#FF6584"/>
    <path d="M213.156 68.57C213.268 67.5678 212.794 66.6922 212.097 66.6143C211.4 66.5364 210.744 67.2857 210.632 68.2879C210.52 69.2901 210.995 70.1657 211.691 70.2436C212.388 70.3215 213.044 69.5722 213.156 68.57Z" fill="#E6E6E6"/>
    <path d="M214.707 80.4059C214.818 79.4037 214.344 78.5281 213.647 78.4502C212.951 78.3723 212.295 79.1216 212.183 80.1238C212.071 81.126 212.545 82.0016 213.242 82.0795C213.939 82.1574 214.595 81.4081 214.707 80.4059Z" fill="#3F3D56"/>
    <path d="M195.406 57.8493C195.518 56.8471 195.044 55.9715 194.347 55.8936C193.65 55.8157 192.994 56.565 192.882 57.5672C192.77 58.5694 193.245 59.445 193.941 59.5229C194.638 59.6008 195.294 58.8515 195.406 57.8493Z" fill="#E6E6E6"/>
    <path d="M204.906 54.278C205.018 53.2758 204.544 52.4002 203.847 52.3223C203.15 52.2444 202.494 52.9937 202.382 53.9959C202.27 54.9981 202.745 55.8737 203.441 55.9516C204.138 56.0295 204.794 55.2802 204.906 54.278Z" fill="#FF6584"/>
    <path d="M193.203 44.6305C193.315 43.6283 192.84 42.7528 192.144 42.6748C191.447 42.5969 190.791 43.3462 190.679 44.3484C190.567 45.3506 191.041 46.2262 191.738 46.3041C192.435 46.382 193.091 45.6328 193.203 44.6305Z" fill="#3F3D56"/>
    <path d="M51.0797 274.986C49.6538 274.401 48.372 273.514 47.3226 272.385C46.2733 271.256 45.4816 269.912 45.0023 268.447C44.523 266.982 44.3675 265.43 44.5466 263.899C44.7258 262.367 45.2352 260.893 46.0396 259.579L15.3008 216.346L25.162 204.899L61.2958 256.514C63.4072 258.034 64.8881 260.275 65.458 262.814C66.0279 265.353 65.6472 268.013 64.3879 270.29C63.1287 272.567 61.0784 274.303 58.6256 275.168C56.1728 276.033 53.4879 275.969 51.0797 274.986Z" fill="#FFB6B6"/>
    <path d="M51.7866 137.984C50.2315 137.068 48.4012 136.738 46.6242 137.051C44.8472 137.364 43.2399 138.3 42.0908 139.692L0.558594 197.808L39.0481 252.503L54.1093 236.318L30.6808 199.482L61.8174 169.821C64.3761 164.212 64.7669 157.854 62.9143 151.975C61.0618 146.095 57.0974 141.11 51.7866 137.984Z" fill="#FEE599"/>
</svg>
