<svg width="399" height="372" viewBox="0 0 399 372" fill="none" xmlns="http://www.w3.org/2000/svg">
    <path d="M268.955 263.715H125.823C113.792 263.715 104.004 253.928 104.004 241.899V98.7823C104.004 86.7526 113.792 76.9658 125.823 76.9658H268.955C280.986 76.9658 290.774 86.7526 290.774 98.7823V241.899C290.774 253.928 280.986 263.715 268.955 263.715ZM125.823 80.4565C115.701 80.4565 107.495 88.6612 107.495 98.7823V241.899C107.495 252.02 115.701 260.224 125.823 260.224H226.083C259.883 260.224 287.283 232.828 287.283 199.032V98.7823C287.283 88.6612 279.077 80.4565 268.955 80.4565L125.823 80.4565Z" fill="#F2F2F2"/>
    <path d="M141.254 95.3389C134.48 95.3389 128.969 100.849 128.969 107.623V126.85C128.969 133.623 134.48 139.134 141.254 139.134H160.483C167.257 139.134 172.768 133.623 172.768 126.85V107.623C172.768 100.849 167.257 95.3389 160.483 95.3389H141.254Z" fill="#F2F2F2"/>
    <path d="M141.254 149.466C134.48 149.466 128.969 154.976 128.969 161.75V180.977C128.969 187.75 134.48 193.261 141.254 193.261H160.483C167.257 193.261 172.768 187.75 172.768 180.977V161.75C172.768 154.976 167.257 149.466 160.483 149.466H141.254Z" fill="#F2F2F2"/>
    <path d="M141.254 203.593C134.48 203.593 128.969 209.103 128.969 215.877V235.104C128.969 241.877 134.48 247.388 141.254 247.388H160.483C167.257 247.388 172.768 241.877 172.768 235.104V215.877C172.768 209.103 167.257 203.593 160.483 203.593H141.254Z" fill="#E6F8F9"/>
    <path d="M154.003 48.4297C145.467 48.4297 138.523 55.3729 138.523 63.9078V88.1344C138.523 96.6693 145.467 103.612 154.003 103.612H178.233C186.768 103.612 193.712 96.6693 193.712 88.1344V63.9078C193.712 55.3729 186.768 48.4297 178.233 48.4297H154.003Z" fill="#07BDC6" fill-opacity="0.99"/>
    <path d="M233.773 116.133C225.237 116.133 218.293 123.076 218.293 131.611V155.838C218.293 164.373 225.237 171.316 233.773 171.316H258.002C266.538 171.316 273.482 164.373 273.482 155.838V131.611C273.482 123.076 266.538 116.133 258.002 116.133H233.773Z" fill="#E6F8F9"/>
    <path d="M199.093 359.983L194.171 359.942L191.992 340.516L199.257 340.577L199.093 359.983Z" fill="#A0616A"/>
    <path d="M183.328 367.81C183.318 369.021 184.294 370.018 185.51 370.029L195.297 370.111L197.01 366.639L197.639 370.129L201.332 370.162L200.399 357.714L199.115 357.629L193.874 357.268L192.184 357.154L192.154 360.676L184.293 366.008C183.694 366.414 183.334 367.087 183.328 367.81Z" fill="#2F2E41"/>
    <path d="M224.136 359.983L219.214 359.942L217.035 340.516L224.3 340.577L224.136 359.983Z" fill="#A0616A"/>
    <path d="M208.371 367.81C208.36 369.021 209.337 370.018 210.553 370.029L220.34 370.111L222.053 366.639L222.682 370.129L226.375 370.162L225.442 357.714L224.158 357.629L218.917 357.268L217.227 357.154L217.197 360.676L209.335 366.008C208.737 366.414 208.377 367.087 208.371 367.81Z" fill="#2F2E41"/>
    <path d="M179.779 202.923L199.732 203.553L218.634 207.753C218.634 207.753 216.743 210.063 223.044 216.363C223.044 216.363 231.445 231.063 225.564 245.343L223.044 302.462C223.044 302.462 230.392 342.728 224.778 355.543L217.357 356.007L204.801 302.927L198.681 245.763L195.741 302.042C195.741 302.042 206.99 340.672 199.887 356.007L191.85 355.543L178.099 302.042C178.099 302.042 172.219 240.303 173.059 228.543C173.899 216.783 179.779 202.923 179.779 202.923Z" fill="#2F2E41"/>
    <path d="M246.785 112.665C244.057 113.371 242.419 116.155 243.125 118.882C243.449 120.131 244.211 121.148 245.202 121.82L245.202 121.827L244.815 131.198L251.987 134.516L252.559 120.096L252.509 120.097C253.131 118.99 253.346 117.651 253.002 116.324C252.296 113.597 249.512 111.959 246.785 112.665Z" fill="#A0616A"/>
    <path d="M206.7 146.11C205.193 144.617 204.319 142.592 204.286 140.391C204.242 137.437 205.722 134.757 208.245 133.221C211.151 131.451 214.784 131.63 217.502 133.676L240.023 150.631L244.036 126.206L252.652 128.979L250.596 160.784C250.452 163.009 249.195 164.968 247.232 166.026C245.27 167.084 242.941 167.058 241.003 165.956L208.457 147.441C207.803 147.069 207.214 146.62 206.7 146.11Z" fill="#FEE599"/>
    <path d="M172.357 99.0021C173.797 101.424 173.001 104.554 170.579 105.993C169.469 106.653 168.212 106.838 167.036 106.618L167.031 106.623L160.707 113.55L153.277 110.858L163.025 100.214L163.059 100.25C163.397 99.0259 164.187 97.9242 165.365 97.2239C167.787 95.7843 170.918 96.5805 172.357 99.0021Z" fill="#A0616A"/>
    <path d="M175.088 150.679L138.939 140.915C136.786 140.334 135.114 138.713 134.465 136.58C133.817 134.447 134.304 132.171 135.768 130.489L156.703 106.456L164.774 110.552L150.425 130.722L178.357 134.536C181.728 134.997 184.434 137.427 185.251 140.729C185.961 143.596 185.125 146.542 183.014 148.608C181.441 150.149 179.395 150.971 177.273 150.971C176.549 150.971 175.815 150.875 175.088 150.679Z" fill="#FEE599"/>
    <path d="M226.625 211.326L176.074 213.645C174.686 211.536 175.062 208.366 177.006 204.397C184.348 189.41 178.772 161.056 175.022 146.293C173.969 142.15 176.794 138.032 181.047 137.607L185.814 137.131L190.219 123.683H205.65L212.051 130.995L222.915 137.594C220.938 157.961 212.512 186.72 224.516 201.142C227.141 204.297 227.885 207.708 226.625 211.326Z" fill="#FEE599"/>
    <path d="M195.971 123.994C204.272 123.994 211.001 117.265 211.001 108.966C211.001 100.666 204.272 93.9375 195.971 93.9375C187.67 93.9375 180.941 100.666 180.941 108.966C180.941 117.265 187.67 123.994 195.971 123.994Z" fill="#A0616A"/>
    <path d="M212.979 99.3456C215.07 91.7225 192.279 85.1856 187.85 91.3245C187.234 90.4517 184.958 89.9216 183.914 90.1893C182.87 90.457 181.991 91.1263 181.134 91.7743C179.956 92.6792 178.735 93.6162 178.012 94.9174C177.284 96.2132 177.172 97.9802 178.152 99.1046C178.928 99.9988 180.293 104.751 181.46 104.986C182.274 105.152 182.959 105.286 183.549 105.382C184.073 104.617 185.412 103.655 185.315 102.729C186.108 103.253 185.818 104.177 185.658 105.12C185.126 108.262 173.139 132.584 180.005 125.417C180.685 125.819 181.525 126.193 182.495 126.536C184.139 124.057 185.488 121.133 186.377 118.076L186.383 118.132C186.69 120.789 188.631 122.97 191.201 123.714C201.507 126.699 209.844 122.318 212.712 114.418C211.662 112.287 211.204 112.519 211.299 112.455C212.609 111.572 214.41 112.15 214.974 113.626C215.14 114.062 215.291 114.433 215.421 114.713C216.915 109.369 218.692 110.14 212.979 99.3456Z" fill="#2F2E41"/>
    <path d="M205.87 93.8151L204.817 88.4335C204.729 87.9811 204.645 87.4903 204.849 87.0769C205.111 86.5458 205.785 86.3257 206.371 86.4103C206.957 86.495 207.396 87.0304 207.979 87.1335C210.007 87.492 212.688 85.4891 213.414 90.556C213.717 92.6687 217.089 92.8918 218.215 94.7049C219.341 96.518 219.479 99.1351 217.942 100.616C216.715 101.799 214.744 101.936 213.15 101.332C211.556 100.727 210.277 99.5066 209.16 98.2194C208.042 96.9322 207.03 95.5392 205.742 94.4237" fill="#2F2E41"/>
    <path d="M213.784 102C209.671 101.426 206.868 99.9304 205.452 97.5556C203.599 94.447 204.84 91.0241 204.894 90.8799L205.763 91.203C205.752 91.2345 204.626 94.3678 206.254 97.0887C207.52 99.2054 210.097 100.549 213.912 101.082L213.784 102Z" fill="#07BDC6"/>
    <path d="M233.084 43.8514C220.994 43.8514 211.156 34.0148 211.156 21.9257C211.156 9.83658 220.994 0 233.084 0C245.175 0 255.012 9.83658 255.012 21.9257C255.012 34.0148 245.175 43.8514 233.084 43.8514ZM233.084 8.77028C225.829 8.77028 219.927 14.6714 219.927 21.9257C219.927 29.18 225.829 35.0811 233.084 35.0811C240.339 35.0811 246.241 29.18 246.241 21.9257C246.241 14.6714 240.339 8.77028 233.084 8.77028Z" fill="#07BDC6"/>
    <path d="M266.822 58.7518C265.747 58.7518 264.67 58.36 263.824 57.5656L243.243 38.28C241.474 36.6248 241.385 33.8499 243.042 32.0834C244.695 30.3105 247.47 30.2227 249.239 31.8821L269.82 51.1677C271.589 52.8229 271.679 55.5978 270.022 57.3643C269.159 58.2872 267.992 58.7518 266.822 58.7518Z" fill="#07BDC6"/>
</svg>
