<svg width="46" height="50" viewBox="0 0 46 50" fill="none" xmlns="http://www.w3.org/2000/svg">
    <path fill-rule="evenodd" clip-rule="evenodd" d="M30.609 46.6598C35.0014 45.4369 39.6 44.82 44.061 44.2549C45.0218 44.1364 45.9138 44.7975 45.9825 45.729C46.1197 46.6611 45.433 47.5136 44.5408 47.6321C40.2171 48.1761 35.7566 48.7583 31.5701 49.9355C30.6779 50.1909 29.7167 49.6652 29.4422 48.761C29.1677 47.8575 29.7168 46.9158 30.609 46.6598Z" fill="#07BDC6"/>
    <path fill-rule="evenodd" clip-rule="evenodd" d="M17.297 29.3221C24.3659 22.1653 32.327 15.9297 39.2587 8.58086C39.8764 7.89452 40.9745 7.85775 41.6608 8.49847C42.3471 9.13987 42.4154 10.2184 41.7291 10.9047C34.7975 18.2747 26.8364 24.5307 19.7674 31.7086C19.0811 32.3786 17.9833 32.3881 17.297 31.729C16.6794 31.0706 16.6107 29.9921 17.297 29.3221Z" fill="#07BDC6"/>
    <path fill-rule="evenodd" clip-rule="evenodd" d="M4.05035 1.79466C3.84446 5.89088 3.63897 9.98711 3.43308 14.084C3.43308 15.0223 2.60911 15.7467 1.64829 15.7011C0.687465 15.6548 0.00156498 14.8561 0.00156498 13.9172C0.207456 9.81417 0.412944 5.71181 0.618835 1.60946C0.687465 0.671191 1.51116 -0.0485087 2.47199 0.00255798C3.36418 0.0536246 4.11898 0.857076 4.05035 1.79466Z" fill="#07BDC6"/>
</svg>
