<svg width="191" height="12" viewBox="0 0 191 12" fill="none" xmlns="http://www.w3.org/2000/svg">
    <path fill-rule="evenodd" clip-rule="evenodd" d="M63.5417 1.02662C42.624 0.785794 21.621 1.66589 1.37432 5.36143C1.01309 5.42711 0.863129 5.55629 0.833574 5.58584C0.660619 5.76099 0.641978 5.94707 0.663871 6.10032C0.677006 6.19337 0.765712 6.58634 1.25064 6.62684C1.58561 6.65421 3.96315 6.46265 4.88047 6.41339C9.19887 6.18242 13.5086 5.85293 17.816 5.47199C27.5825 4.6116 37.3358 3.86724 47.1176 3.18965C52.6094 2.80871 58.1035 2.49344 63.5943 2.2351C76.8034 2.38945 89.9798 2.99152 102.91 3.61328C97.7704 3.92963 93.0481 4.25036 89.1325 4.45835C82.5296 4.80863 75.9387 5.22241 69.3489 5.76754C65.9631 6.04668 62.5817 6.34991 59.2025 6.70786C58.8281 6.74836 57.9754 6.78995 57.5627 6.83921C57.3876 6.85891 57.2606 6.89066 57.2037 6.91256C56.8469 7.05048 56.802 7.33289 56.7976 7.4752C56.7954 7.56167 56.825 8.03347 57.427 8.12543C85.4205 12.4405 114.626 7.42047 142.72 11.6152C143.05 11.6644 143.358 11.4367 143.407 11.1062C143.457 10.7767 143.229 10.468 142.898 10.4187C116.439 6.46812 88.9924 10.6924 62.4986 7.59124C64.8137 7.36683 67.13 7.16432 69.4485 6.97276C76.0262 6.42871 82.6051 6.01604 89.1971 5.66575C95.8307 5.31437 104.798 4.62801 114.185 4.19563C122.24 4.64443 130.291 5.14797 138.348 5.57488C141.747 5.75441 145.147 5.90328 148.545 6.08609C149.941 6.16053 153.535 6.4725 154.056 6.35647C154.461 6.26561 154.559 5.97553 154.583 5.82995C154.608 5.67232 154.593 5.47637 154.409 5.28918C154.352 5.23007 154.181 5.10747 153.831 5.00677C144.357 2.29313 128.843 2.33581 114.314 2.99151C111.189 2.81637 108.063 2.64998 104.937 2.50001C97.7802 2.1552 90.5446 1.80928 83.2674 1.53672C103.776 1.02989 124.294 1.17549 144.817 1.54219C153.434 1.69654 176.662 2.627 185.81 3.44908C185.698 3.56402 185.633 3.72384 185.64 3.89788C185.656 4.23066 185.939 4.489 186.273 4.47367C188.16 4.3861 189.251 4.27445 189.684 4.15951C189.953 4.08836 190.1 3.97451 190.168 3.90008C190.334 3.72055 190.365 3.52789 190.332 3.34508C190.311 3.23124 190.26 3.10645 190.141 2.99151C190.063 2.9127 189.87 2.79229 189.542 2.71019C185.946 1.81586 155.099 0.516501 144.839 0.332599C117.726 -0.151236 90.6234 -0.249745 63.5417 1.02662ZM146.497 4.76813C141.198 4.04894 134.987 3.79608 128.508 3.8125C131.809 4.00406 135.11 4.19125 138.413 4.3664C141.107 4.5098 143.802 4.63239 146.497 4.76813ZM38.5531 2.58869C31.602 3.10098 24.6586 3.65487 17.7098 4.26788C16.9074 4.33793 16.1061 4.4069 15.3038 4.47477C22.9882 3.53337 30.7526 2.9346 38.5531 2.58869Z" fill="#07BDC6"/>
</svg>
