<svg width="208" height="26" viewBox="0 0 208 26" fill="none" xmlns="http://www.w3.org/2000/svg">
    <path fill-rule="evenodd" clip-rule="evenodd" d="M55.4391 15.3113C46.5029 17.6609 36.1856 19.9992 26.2603 20.583C17.777 21.0814 9.58284 20.3074 2.87584 17.0141C1.93039 16.5504 0.74643 16.8692 0.235123 17.7273C-0.276963 18.5847 0.0753361 19.6585 1.02079 20.1229C8.3373 23.7144 17.2586 24.6538 26.512 24.1095C36.6158 23.5158 47.1194 21.1619 56.2349 18.7784C57.2926 20.7215 59.4828 22.5332 63.341 23.8699C69.267 25.9233 77.3582 25.8978 85.8821 24.7407C98.2446 23.0634 111.543 19.0633 120.094 16.221C120.444 16.1051 120.967 15.9206 121.606 15.6775C121.801 16.0677 122.019 16.4522 122.26 16.8296C124.357 20.1193 128.067 22.7792 131.847 23.7292C155.823 29.753 183.804 22.5353 206.587 16.6614C207.616 16.3949 208.216 15.4166 207.928 14.4787C207.632 13.5407 206.556 12.9957 205.519 13.2622C183.376 18.9721 156.189 26.1763 132.884 20.3229C130.016 19.6019 127.225 17.5577 125.635 15.0611C125.456 14.7826 125.3 14.4977 125.152 14.2086C128.293 12.797 131.988 10.8292 133.975 8.72274C136.017 6.56331 136.524 4.25826 134.747 2.08115C133.219 0.220007 130.904 0.0616687 128.496 1.02652C125.9 2.05994 123.227 4.47593 122.362 5.60972C120.741 7.72746 120.226 10.0248 120.522 12.2648C119.758 12.5574 119.138 12.7751 118.755 12.9023C110.392 15.6817 97.3935 19.6048 85.3053 21.2454C77.5274 22.3014 70.1391 22.442 64.7315 20.5689C62.4251 19.7694 60.9013 18.8364 60.0743 17.7535C61.7065 17.311 63.2802 16.8756 64.7837 16.46C67.7572 15.6379 73.9482 14.2772 78.3715 11.852C81.8891 9.92369 84.2741 7.30055 84.1354 4.01227C84.0645 2.32289 82.9865 1.19544 81.271 0.563514C78.7074 -0.380136 74.274 0.0764822 72.6232 0.394566C67.6161 1.3573 60.9333 5.34256 57.627 9.8332C56.3074 11.6251 55.5225 13.4996 55.4391 15.3113ZM59.5521 14.2072C60.9668 13.8213 62.3339 13.4424 63.6473 13.0791C66.4228 12.3114 72.2249 11.0921 76.3551 8.82732C78.5422 7.6285 80.3279 6.19219 80.2413 4.14727C80.2343 3.98822 80.0605 3.943 79.907 3.87797C79.6692 3.7783 79.3972 3.70972 79.1073 3.656C77.1454 3.29268 74.5102 3.64397 73.4315 3.85178C69.2303 4.65971 63.6418 8.02788 60.8678 11.7961C60.2817 12.592 59.8148 13.4028 59.5521 14.2072ZM124.373 10.6376C126.204 9.78301 128.122 8.74958 129.634 7.62497C130.437 7.02768 131.115 6.41345 131.543 5.77587C131.902 5.24856 132.042 4.70849 131.614 4.18683C131.442 3.97548 131.185 3.97126 130.92 4.01085C130.639 4.05326 130.351 4.14371 130.063 4.26034C128.161 5.0195 126.197 6.79301 125.565 7.62497C124.825 8.58983 124.458 9.61054 124.373 10.6376Z" fill="#07BDC6"/>
</svg>
