<svg width="64" height="64" viewBox="0 0 64 64" fill="none" xmlns="http://www.w3.org/2000/svg">
    <rect width="64" height="64" rx="32" fill="#3C3F52" fill-opacity="0.06"/>
    <g clip-path="url(#clip0_1_648)">
        <path d="M49.3217 46.0533L42.6 39.3317C42.4711 39.2043 42.3911 39.0356 42.3742 38.8552C42.3573 38.6747 42.4045 38.4941 42.5075 38.345C44.3767 35.6573 45.3775 32.4613 45.375 29.1875C45.375 25.9859 44.4256 22.8562 42.6469 20.1942C40.8682 17.5322 38.3401 15.4574 35.3822 14.2322C32.4243 13.007 29.1695 12.6864 26.0295 13.311C22.8894 13.9356 20.0051 15.4774 17.7412 17.7412C15.4774 20.0051 13.9356 22.8894 13.311 26.0295C12.6864 29.1695 13.007 32.4243 14.2322 35.3822C15.4574 38.3401 17.5322 40.8682 20.1942 42.6469C22.8562 44.4256 25.9859 45.375 29.1875 45.375C32.4613 45.3775 35.6573 44.3767 38.345 42.5075C38.4941 42.4045 38.6747 42.3573 38.8552 42.3742C39.0356 42.3911 39.2043 42.4711 39.3317 42.6L46.0533 49.3217C46.4869 49.7547 47.0747 49.998 47.6875 49.998C48.3003 49.998 48.8881 49.7547 49.3217 49.3217C49.538 49.108 49.7097 48.8536 49.8269 48.573C49.9441 48.2925 50.0044 47.9915 50.0044 47.6875C50.0044 47.3835 49.9441 47.0825 49.8269 46.802C49.7097 46.5215 49.538 46.267 49.3217 46.0533ZM16.0833 29.1875C16.0833 26.5957 16.8519 24.0622 18.2918 21.9072C19.7317 19.7523 21.7783 18.0727 24.1728 17.0808C26.5672 16.089 29.202 15.8295 31.744 16.3351C34.286 16.8408 36.6209 18.0888 38.4536 19.9215C40.2862 21.7541 41.5343 24.0891 42.0399 26.631C42.5455 29.173 42.286 31.8078 41.2942 34.2023C40.3024 36.5967 38.6228 38.6433 36.4678 40.0832C34.3128 41.5231 31.7793 42.2917 29.1875 42.2917C25.7133 42.2876 22.3826 40.9057 19.926 38.449C17.4693 35.9924 16.0874 32.6617 16.0833 29.1875Z" fill="#19171C"/>
        <path d="M30.2515 21.1253C29.9656 20.8565 29.5879 20.7068 29.1954 20.7068C28.803 20.7068 28.4253 20.8565 28.1394 21.1253L20.9552 27.847C20.8428 27.9534 20.7651 28.0912 20.7321 28.2424C20.6991 28.3936 20.7124 28.5513 20.7702 28.6949C20.8198 28.8423 20.9155 28.9699 21.0433 29.0588C21.171 29.1476 21.3239 29.193 21.4794 29.1882H22.2502C22.4547 29.1882 22.6507 29.2694 22.7953 29.414C22.9399 29.5585 23.0211 29.7546 23.0211 29.959V35.3549C23.0211 35.7637 23.1835 36.1559 23.4726 36.445C23.7617 36.7341 24.1539 36.8965 24.5627 36.8965H33.8127C34.2216 36.8965 34.6137 36.7341 34.9029 36.445C35.192 36.1559 35.3544 35.7637 35.3544 35.3549V29.959C35.3544 29.7546 35.4356 29.5585 35.5802 29.414C35.7247 29.2694 35.9208 29.1882 36.1252 29.1882H36.8961C37.0516 29.193 37.2045 29.1476 37.3322 29.0588C37.4599 28.9699 37.5557 28.8423 37.6052 28.6949C37.6631 28.5513 37.6764 28.3936 37.6434 28.2424C37.6104 28.0912 37.5326 27.9534 37.4202 27.847L30.2515 21.1253Z" fill="#07BDC6"/>
    </g>
    <defs>
        <clipPath id="clip0_1_648">
            <rect width="37" height="37" fill="white" transform="translate(13 13)"/>
        </clipPath>
    </defs>
</svg>
