<svg width="17" height="16" viewBox="0 0 17 16" fill="none" xmlns="http://www.w3.org/2000/svg">
    <path d="M4.19588 1.90367C4.19588 2.95503 3.28458 3.80733 2.16044 3.80733C1.0363 3.80733 0.125 2.95503 0.125 1.90367C0.125 0.852301 1.0363 0 2.16044 0C3.28458 0 4.19588 0.852301 4.19588 1.90367Z" fill="white"/>
    <path d="M0.403351 5.20661H3.88273V15.75H0.403351V5.20661Z" fill="white"/>
    <path d="M9.48454 5.20661H6.00515V15.75H9.48454C9.48454 15.75 9.48454 12.4308 9.48454 10.3555C9.48454 9.10982 9.90986 7.85873 11.607 7.85873C13.5249 7.85873 13.5133 9.48885 13.5044 10.7517C13.4927 12.4025 13.5206 14.0871 13.5206 15.75H17V10.1854C16.9705 6.6323 16.0447 4.99509 12.9987 4.99509C11.1898 4.99509 10.0685 5.81632 9.48454 6.5593V5.20661Z" fill="white"/>
</svg>
